<svg data-v-0dd9719b="" version="1.0" xmlns="http://www.w3.org/2000/svg" xmlns:xlink="http://www.w3.org/1999/xlink" width="100%" height="100%" viewBox="0 0 340.000000 250.000000" preserveAspectRatio="xMidYMid meet" color-interpolation-filters="sRGB" style="margin: auto;"> <rect data-v-0dd9719b="" x="0" y="0" width="100%" height="100%" fill="#fff" fill-opacity="1" class="background"></rect> <rect data-v-0dd9719b="" x="0" y="0" width="100%" height="100%" fill="url(#watermark)" fill-opacity="1" class="watermarklayer"></rect> <g data-v-0dd9719b="" fill="#333" class="icon-text-wrapper icon-svg-group iconsvg" transform="translate(51.900001525878906,98.96149635336211)"><g class="iconsvg-imagesvg" transform="translate(0,0)"><g><rect fill="#333" fill-opacity="0" stroke-width="2" x="0" y="0" width="60" height="52.0770045306994" class="image-rect"></rect> <svg x="0" y="0" width="60" height="52.0770045306994" filtersec="colorsb7841422723" class="image-svg-svg primary" style="overflow: visible;"><svg xmlns="http://www.w3.org/2000/svg" viewBox="0.01035265438258648 -0.006200313568115234 131.36354064941406 114.0174789428711"><path d="M50 81.69c.91 0 1.49-.08 2.07-.08h38.28a2.4 2.4 0 0 0 2.39-1.39q9.36-16.32 18.81-32.61c.4-.68.84-1.34 1.44-2.3 1.64 2.83 3.21 5.36 4.54 8 .24.47-.38 1.48-.76 2.15-6 10.48-12.17 20.91-18.09 31.45-1.28 2.28-2.53 3.3-5.31 3.25-12.1-.2-24.2-.12-36.3-.06a3.14 3.14 0 0 1-3.34-1.88c-1.08-2.14-2.39-4.17-3.73-6.53z" fill="#188bff"></path><path d="M57.91 41.32c-.37.74-.61 1.28-.9 1.79C50.67 54.06 44.36 65 38 75.93a2.89 2.89 0 0 0 0 3.32q9.47 16.27 18.84 32.59c.33.57.65 1.14 1.06 1.87a7.82 7.82 0 0 1-1.24.21c-2.33 0-4.66 0-7 .08a2 2 0 0 1-2.05-1.2q-8-14-16.06-27.88c-1.18-2.06-2.34-4.14-3.6-6.16a2 2 0 0 1 0-2.34q9.73-16.74 19.36-33.52a2.85 2.85 0 0 1 3-1.72c2 .12 4 0 5.92 0 .47.03.96.09 1.68.14z" fill="#8fc321"></path><path d="M39.05 8.54a28.1 28.1 0 0 0 2.18-4C42.56.77 45.1-.09 49 0c11.84.31 23.69.14 35.54.1a2.07 2.07 0 0 1 2 1.2q9.81 17 19.62 34.07a2.12 2.12 0 0 1 .28 1.66c-1.34 2.54-2.82 5-4.41 7.78-.44-.65-.76-1.06-1-1.5Q91.45 26.67 81.87 10a2.65 2.65 0 0 0-2.65-1.51H41.55z" fill="#fb941c" opacity=".6"></path><path d="M88.2 68.82c-1.86-3.18-3.51-6-5.14-8.84Q75.45 46.83 67.9 33.66a2.05 2.05 0 0 0-2.05-1.16h-38.9c-.4 0-.8 0-1.43-.09a8.14 8.14 0 0 1 .48-1.28c1.11-2 2.18-4 3.42-5.91a2.65 2.65 0 0 1 1.86-1.13q19.83-.09 39.65 0a2.41 2.41 0 0 1 1.77 1q10 17.13 19.81 34.32a1.88 1.88 0 0 1 .2 1.51c-1.38 2.55-2.85 5.08-4.51 7.9z" fill="#fb941c"></path><path d="M119.8 57.32c1.65 2.84 3.17 5.38 4.6 8 .16.28-.06.87-.27 1.23q-10 17.3-20 34.55a2.41 2.41 0 0 1-1.79 1H63.01a2 2 0 0 1-2.05-1.2c-1.09-2-2.27-4-3.39-5.93a12.76 12.76 0 0 1-.57-1.23c.67 0 1.15-.09 1.63-.09 12.61 0 25.21-.05 37.82 0a3.37 3.37 0 0 0 3.42-2Q109.24 75.31 118.7 59c.3-.46.62-.94 1.1-1.68z" fill="#188bff" opacity=".8"></path><path d="M126.77 69.23c1.65 2.86 3.17 5.4 4.55 8 .2.36-.2 1.14-.49 1.64q-8.16 14.22-16.38 28.41c-1.06 1.84-2 3.73-3.21 5.5a2.67 2.67 0 0 1-1.86 1.13q-19.74.1-39.49 0c-.51 0-1.27-.14-1.48-.48-1.54-2.47-3-5-4.61-7.82 1.11-.06 1.89-.13 2.67-.13h37.51a2.65 2.65 0 0 0 2.63-1.53q9.49-16.61 19.1-33.14c.29-.37.57-.81 1.06-1.58z" fill="#188bff" opacity=".6"></path><path d="M44.26 41.2C37.42 53 30.84 64.46 24.21 75.85a2.85 2.85 0 0 0 0 3.31c6.42 11 12.77 22.07 19.14 33.11.25.43.46.88.87 1.66a53.72 53.72 0 0 0-6.25 0c-2.59.31-3.9-.71-5.16-3-6-10.72-12.22-21.32-18.41-31.94a2.65 2.65 0 0 1 0-3q9.47-16.29 18.84-32.7c.88-1.54 1.82-2.29 3.67-2.14 2.3.19 4.63.05 7.35.05z" fill="#8fc321" opacity=".8"></path><path d="M30.32 41.23c-.42.85-.63 1.35-.9 1.81Q19.91 59.55 10.35 76a2.61 2.61 0 0 0 0 3q9.75 16.8 19.42 33.66c.17.29.29.6.6 1.24-2.5 0-4.76-.13-7 0a3.63 3.63 0 0 1-3.91-2.19C13.16 100.72 6.75 89.7.35 78.67a2 2 0 0 1 0-2.23q9.92-17.07 19.79-34.15c.25-.44.76-1 1.16-1 2.87-.1 5.75-.06 9.02-.06z" fill="#8fc321" opacity=".6"></path><path d="M32.21 20.51c1.66-2.91 3-5.43 4.52-7.88a2 2 0 0 1 1.46-.54c13.22 0 26.43-.05 39.65 0a2.45 2.45 0 0 1 1.78 1q10 17.11 19.84 34.29c.23.39.46 1 .29 1.36-1.4 2.61-2.9 5.17-4.52 8-.45-.67-.74-1.06-1-1.47C87.85 44.23 81.42 33.15 75.06 22a2.6 2.6 0 0 0-2.61-1.54h-38z" fill="#fb941c" opacity=".8"></path></svg></svg> <!----></g></g> <g transform="translate(67,4.018503189086914)"><g data-gra="path-name" fill-rule="" class="tp-name iconsvg-namesvg"><g transform="scale(1)"><g><path d="M42.66 0L35.76 0 32.58-11.28 12.54-11.28 7.02 0 0 0 21.66-44.04 30.3-44.04 42.66 0ZM25.26-37.32L15.54-17.46 30.84-17.46 25.26-37.32ZM45.96-30.6L42.66 0 48.96 0 51.54-24.36 66.84-24.36 64.2 0 70.56 0 73.74-30.6 45.96-30.6ZM102.06 0L106.74-44.04 100.38-44.04 99-30.66 77.04-30.66 73.74 0 102.06 0ZM82.62-24.42L98.4-24.42 96.42-6.18 80.7-6.18 82.62-24.42ZM109.98-30.6L106.74 0 133.62 0 135.72-6.18 113.76-6.18 114.36-12.42 136.38-12.42 138.3-30.6 109.98-30.6ZM131.22-18.12L114.96-18.12 115.62-24.36 131.88-24.36 131.22-18.12ZM138.3-6.18L139.14 0 165.9 0 167.88-18.66 145.86-18.66 146.52-24.36 168.54-24.36 169.2-30.6 140.88-30.6 138.96-12.42 160.98-12.42 160.32-6.18 138.3-6.18Z" transform="translate(0, 44.040000915527344)"></path></g> <!----> <!----> <!----> <!----> <!----> <!----> <!----></g></g> <!----></g></g><defs v-gra="od"></defs></svg>